{
  "accessors": [
    {
      "bufferView": 2,
      "componentType": 5126,
      "count": 904,
      "max": [
        0.9809635281562805,
        0.9809636473655701,
        1.126887559890747
      ],
      "min": [
        -0.9809632301330566,
        -0.9809633493423462,
        -1.040272831916809
      ],
      "type": "VEC3"
    },
    {
      "bufferView": 2,
      "byteOffset": 10848,
      "componentType": 5126,
      "count": 904,
      "max": [
        0.9975356459617615,
        0.9975356459617615,
        0.999770998954773
      ],
      "min": [
        -0.9975356459617615,
        -0.9975356459617615,
        -0.9998670816421509
      ],
      "type": "VEC3"
    },
    {
      "bufferView": 1,
      "componentType": 5126,
      "count": 904,
      "max": [
        0.9338947534561157,
        0.8654901385307312
      ],
      "min": [
        0.058820806443691254,
        0.07005386799573898
      ],
      "type": "VEC2"
    },
    {
      "bufferView": 1,
      "byteOffset": 7232,
      "componentType": 5126,
      "count": 904,
      "max": [
        0.9338947534561157,
        0.8654901385307312
      ],
      "min": [
        0.058820806443691254,
        0.07005386799573898
      ],
      "type": "VEC2"
    },
    {
      "bufferView": 0,
      "componentType": 5125,
      "count": 4608,
      "type": "SCALAR"
    }
  ],
  "asset": {
    "extras": {
      "author": "giga (https://sketchfab.com/gits3d)",
      "license": "CC-BY-4.0 (http://creativecommons.org/licenses/by/4.0/)",
      "source": "https://sketchfab.com/3d-models/apple-single-59c4f5c7b8e54f509100204bdbf6bd4d",
      "title": "Apple (single)"
    },
    "generator": "Sketchfab-12.66.0",
    "version": "2.0"
  },
  "bufferViews": [
    {
      "buffer": 0,
      "byteLength": 18432,
      "name": "floatBufferViews",
      "target": 34963
    },
    {
      "buffer": 0,
      "byteLength": 14464,
      "byteOffset": 18432,
      "byteStride": 8,
      "name": "floatBufferViews",
      "target": 34962
    },
    {
      "buffer": 0,
      "byteLength": 21696,
      "byteOffset": 32896,
      "byteStride": 12,
      "name": "floatBufferViews",
      "target": 34962
    }
  ],
  "buffers": [
    {
      "byteLength": 54592,
      "uri": "scene.bin"
    }
  ],
  "images": [
    {
      "uri": "textures/Apple_baseColor.png"
    },
    {
      "uri": "textures/Apple_metallicRoughness.png"
    }
  ],
  "materials": [
    {
      "doubleSided": true,
      "name": "Apple",
      "pbrMetallicRoughness": {
        "baseColorTexture": {
          "index": 0
        },
        "metallicFactor": 0.0,
        "metallicRoughnessTexture": {
          "index": 1
        },
        "roughnessFactor": 0.646208404
      }
    }
  ],
  "meshes": [
    {
      "name": "Sphere.001_Apple_0",
      "primitives": [
        {
          "attributes": {
            "NORMAL": 1,
            "POSITION": 0,
            "TEXCOORD_0": 2,
            "TEXCOORD_1": 3
          },
          "indices": 4,
          "material": 0,
          "mode": 4
        }
      ]
    }
  ],
  "nodes": [
    {
      "children": [
        1
      ],
      "matrix": [
        1.0,
        0.0,
        0.0,
        0.0,
        0.0,
        2.220446049250313e-16,
        -1.0,
        0.0,
        0.0,
        1.0,
        2.220446049250313e-16,
        0.0,
        0.0,
        -4.629999850180865e-08,
        -2.2500000085301518e-08,
        1.0
      ],
      "name": "Sketchfab_model"
    },
    {
      "children": [
        2
      ],
      "matrix": [
        0.009999999776482582,
        0.0,
        0.0,
        0.0,
        0.0,
        0.0,
        0.009999999776482582,
        0.0,
        0.0,
        -0.009999999776482582,
        0.0,
        0.0,
        0.0,
        0.0,
        0.0,
        1.0
      ],
      "name": "d2ea60d3229d4784927a0811ab5d8161.fbx"
    },
    {
      "children": [
        3
      ],
      "name": "RootNode"
    },
    {
      "children": [
        4
      ],
      "matrix": [
        100.0,
        0.0,
        0.0,
        0.0,
        0.0,
        -1.629206793918314e-05,
        -99.99999999999868,
        0.0,
        0.0,
        99.99999999999868,
        -1.629206793918314e-05,
        0.0,
        0.5635499954223633,
        102.71809387207031,
        0.0,
        1.0
      ],
      "name": "Sphere.001"
    },
    {
      "mesh": 0,
      "name": "Sphere.001_Apple_0"
    }
  ],
  "samplers": [
    {
      "magFilter": 9729,
      "minFilter": 9987,
      "wrapS": 10497,
      "wrapT": 10497
    }
  ],
  "scene": 0,
  "scenes": [
    {
      "name": "Sketchfab_Scene",
      "nodes": [
        0
      ]
    }
  ],
  "textures": [
    {
      "sampler": 0,
      "source": 0
    },
    {
      "sampler": 0,
      "source": 1
    }
  ]
}
